<?xml version="1.0" standalone="no"?>
<!DOCTYPE svg PUBLIC "-//W3C//DTD SVG 20010904//EN"
 "http://www.w3.org/TR/2001/REC-SVG-20010904/DTD/svg10.dtd">
<svg version="1.0" xmlns="http://www.w3.org/2000/svg"
 width="240.000000pt" height="240.000000pt" viewBox="0 0 240.000000 240.000000"
 preserveAspectRatio="xMidYMid meet">
<metadata>
Created by potrace 1.11, written by Peter Selinger 2001-2013
</metadata>
<g transform="translate(0.000000,240.000000) scale(0.100000,-0.100000)"
fill="#000000" stroke="none">
<path d="M744 2382 c-13 -11 -76 -172 -183 -467 -90 -247 -199 -549 -243 -670
-44 -121 -100 -274 -123 -340 -24 -66 -57 -158 -74 -204 -34 -91 -38 -123 -18
-138 10 -8 331 -127 527 -195 30 -11 64 -23 75 -28 11 -5 227 -84 480 -175
362 -131 463 -164 480 -157 21 10 10 -21 447 1187 94 259 181 498 194 532 13
34 24 68 24 76 0 20 -29 42 -80 60 -56 19 -161 56 -670 241 -223 81 -443 161
-490 178 -47 17 -94 34 -105 39 -35 15 -189 70 -206 74 -8 2 -24 -4 -35 -13z
m219 -301 c28 -11 111 -45 182 -76 72 -32 166 -70 210 -86 44 -16 89 -34 100
-39 52 -25 412 -143 520 -170 44 -11 88 -29 98 -38 42 -43 59 -199 33 -298
-19 -71 -44 -111 -82 -129 -65 -31 -113 -8 -149 70 -14 31 -25 58 -25 61 0 19
-54 108 -77 129 -53 46 -262 141 -330 150 -31 4 -41 0 -68 -29 -18 -19 -50
-72 -72 -118 -61 -124 -65 -139 -57 -175 8 -28 114 -83 161 -83 35 0 36 0 120
95 29 32 37 36 74 33 75 -5 100 -75 74 -201 -50 -238 -173 -437 -270 -437 -70
0 -86 37 -64 140 13 61 7 88 -27 130 -44 51 -134 79 -168 51 -18 -15 -77 -167
-105 -268 -26 -95 -20 -140 21 -175 18 -16 37 -28 44 -28 21 0 47 -40 47 -73
0 -41 -28 -85 -60 -93 -118 -30 -688 157 -776 254 -29 31 -38 80 -23 116 18
44 33 53 100 61 78 8 106 30 148 112 96 184 323 815 313 869 -2 11 -4 26 -4
34 -1 9 -14 29 -29 46 -58 63 -70 84 -65 107 18 73 101 96 206 58z"/>
</g>
</svg>
